<?xml version="1.0" standalone="no"?><!DOCTYPE svg PUBLIC "-//W3C//DTD SVG 1.1//EN" "http://www.w3.org/Graphics/SVG/1.1/DTD/svg11.dtd"><svg t="1548141095211" class="icon" style="" viewBox="0 0 1024 1024" version="1.1" xmlns="http://www.w3.org/2000/svg" p-id="9361" xmlns:xlink="http://www.w3.org/1999/xlink" width="350" height="350"><defs><style type="text/css"></style></defs><path d="M509.456 510.146m-445.244 0a445.244 445.244 0 1 0 890.488 0 445.244 445.244 0 1 0-890.488 0Z" fill="#77B3D4" p-id="9362"></path><path d="M753.348 535.962L554.805 283.485c-24.942-31.717-65.756-31.717-90.698 0L265.563 535.962c-24.942 31.717-14.36 57.668 23.518 57.668h109.064v166.966c0 30.737 24.917 55.655 55.655 55.655h111.311c30.738 0 55.655-24.918 55.655-55.655V593.63H729.83c37.878 0 48.46-25.951 23.518-57.668z" fill="#231F20" p-id="9363"></path><path d="M620.767 732.768c0 30.738-24.918 55.655-55.655 55.655H453.8c-30.738 0-55.655-24.918-55.655-55.655V398.836c0-30.738 24.918-55.655 55.655-55.655h111.311c30.738 0 55.655 24.918 55.655 55.655v333.932z" fill="#FFFFFF" p-id="9364"></path><path d="M289.081 565.802c-37.877 0-48.46-25.951-23.518-57.668l198.543-252.476c24.942-31.717 65.757-31.717 90.699 0l198.543 252.476c24.942 31.717 14.359 57.668-23.518 57.668H289.081z" fill="#FFFFFF" p-id="9365"></path></svg>